<svg id="Layer_3" data-name="Layer 3" xmlns="http://www.w3.org/2000/svg" viewBox="0 0 198 86.71">
  <defs>
    <style>
      .cls-1 {
        fill: #937c5c;
      }
    </style>
  </defs>
  <g>
    <path class="cls-1" d="M277.18,139.06H122.88v-.43a8.16,8.16,0,0,0-8.15-8.15h-.43V118.34h.43a8.16,8.16,0,0,0,8.15-8.14v-.44h154.3v.44a8.16,8.16,0,0,0,8.15,8.14h.43v12.14h-.43a8.16,8.16,0,0,0-8.15,8.15Zm-153.45-.86h152.6a9,9,0,0,1,8.56-8.57V119.19a9,9,0,0,1-8.56-8.56H123.73a9,9,0,0,1-8.56,8.56v10.44A9,9,0,0,1,123.73,138.2Z" transform="translate(-101.03 -81.06)"/>
    <path class="cls-1" d="M275.7,137.24H124.32v-.15c0-4.12-3.89-8.16-7.86-8.16h-.14v-8.72h.14c3.29,0,7.86-4.27,7.86-8.48v-.14H275.7v.14c0,4.2,3.91,8.31,7.9,8.31h.14v8.7h-.14c-3.91,0-7.9,4.21-7.9,8.35ZM124.6,137H275.42c.08-4.27,4-8.41,8-8.5v-8.12c-4-.1-7.95-4.22-8-8.45H124.6c-.09,4.32-4.57,8.5-8,8.62v8.14C120.62,128.74,124.51,132.78,124.6,137Z" transform="translate(-101.03 -81.06)"/>
    <g>
      <g>
        <path class="cls-1" d="M282.05,107.16a1.09,1.09,0,0,0,.09,1.48c-1.68.45-2.23,2.61-2.31,3.42-.11,1.14-1.58,1.51-1.58,1.51a1.72,1.72,0,0,0,2.31.2,4.06,4.06,0,0,0,4.91,2.27c1-.19,1.34.16,1.34.16a.8.8,0,0,0-.28-.83,2.52,2.52,0,0,0-.6-3.69,1.78,1.78,0,0,1-.56,2.42,3.76,3.76,0,0,1-3.22-.11c1.59,0,1.44-1.35,1.44-1.35a1.08,1.08,0,0,1-1.79-1.13,3.37,3.37,0,0,1,1.22-1.75,1.4,1.4,0,0,0,1.34,1.34c-1-1.32.16-2,1-1.92s2.35.87,2.89,3.17-1.28,5.06-1.28,5.06a7.3,7.3,0,0,0,1.86-4.68,4.55,4.55,0,0,0-4.86-4.68A2.08,2.08,0,0,1,282.05,107.16Zm2.8,1.43a4.27,4.27,0,0,1,.82.13,3.74,3.74,0,0,1,.5.16l.18.08-.18-.06a3.67,3.67,0,0,0-.51-.13,3.86,3.86,0,0,0-.82-.08,4.52,4.52,0,0,0-1,.11,4.67,4.67,0,0,0-1.15.44,3.66,3.66,0,0,0-1.05.89,2.65,2.65,0,0,0-.38.6,2.82,2.82,0,0,0-.24.69l0,.19v.18a1.11,1.11,0,0,0,0,.19v.18a3.86,3.86,0,0,0,.1.76,3,3,0,0,0,.64,1.33,2.83,2.83,0,0,0,1.17.83,3.34,3.34,0,0,0,1.34.22,3,3,0,0,0,.62-.11,2.66,2.66,0,0,0,.55-.23,2.74,2.74,0,0,0,.82-.65,2.07,2.07,0,0,0,.39-.7,2,2,0,0,0,.07-.52.67.67,0,0,0,0-.19.88.88,0,0,1,0,.19,1.72,1.72,0,0,1,0,.53,2,2,0,0,1-.36.76,2.75,2.75,0,0,1-.82.71,3,3,0,0,1-.57.27,2.87,2.87,0,0,1-.66.14,3.45,3.45,0,0,1-1.44-.2,3,3,0,0,1-1.29-.88,3.42,3.42,0,0,1-.71-1.44,4.46,4.46,0,0,1-.09-.81,3.56,3.56,0,0,1,.08-.8,3.69,3.69,0,0,1,.26-.75,4.07,4.07,0,0,1,.43-.65,4,4,0,0,1,1.13-.9,4.32,4.32,0,0,1,2.31-.48Z" transform="translate(-101.03 -81.06)"/>
        <path class="cls-1" d="M284,140.77a4.55,4.55,0,0,0,4.86-4.68,7.26,7.26,0,0,0-1.86-4.67s1.81,2.75,1.28,5.05-1.91,3.06-2.89,3.18-2-.6-1-1.93a1.4,1.4,0,0,0-1.34,1.35,3.43,3.43,0,0,1-1.22-1.75,1.09,1.09,0,0,1,1.79-1.14s.15-1.36-1.44-1.34a3.72,3.72,0,0,1,3.22-.11,1.77,1.77,0,0,1,.56,2.41,2.52,2.52,0,0,0,.6-3.69.79.79,0,0,0,.28-.82s-.37.34-1.34.15a4.07,4.07,0,0,0-4.91,2.27,1.72,1.72,0,0,0-2.31.2s1.47.37,1.58,1.51c.08.82.63,3,2.31,3.42a1.09,1.09,0,0,0-.09,1.48A2.08,2.08,0,0,1,284,140.77Zm-.22-.6a4.12,4.12,0,0,1-1.22-.42,3.8,3.8,0,0,1-1.13-.9,4,4,0,0,1-.43-.64,3.91,3.91,0,0,1-.26-.75,3.71,3.71,0,0,1-.08-.81,4.26,4.26,0,0,1,.09-.8,3.4,3.4,0,0,1,.71-1.45,3,3,0,0,1,1.29-.88,3.28,3.28,0,0,1,1.44-.19,2.86,2.86,0,0,1,.66.13,3,3,0,0,1,.57.27,2.64,2.64,0,0,1,.82.72,2,2,0,0,1,.36.75,1.77,1.77,0,0,1,0,.54.85.85,0,0,1,0,.18.63.63,0,0,0,0-.18,1.91,1.91,0,0,0-.07-.52,2.11,2.11,0,0,0-.39-.71,2.72,2.72,0,0,0-.82-.64,3.39,3.39,0,0,0-.55-.24,3,3,0,0,0-.62-.1,3.33,3.33,0,0,0-1.34.21,2.83,2.83,0,0,0-1.17.83,3,3,0,0,0-.64,1.33,3.86,3.86,0,0,0-.1.76v.19a1.1,1.1,0,0,0,0,.18v.19l0,.18a2.9,2.9,0,0,0,.24.7,2.65,2.65,0,0,0,.38.6,3.79,3.79,0,0,0,1.05.88,4.31,4.31,0,0,0,1.15.44,4.57,4.57,0,0,0,1,.12,4.64,4.64,0,0,0,.82-.08l.51-.13.18-.06-.18.07a3.51,3.51,0,0,1-.5.17,4.27,4.27,0,0,1-.82.13A4.18,4.18,0,0,1,283.76,140.17Z" transform="translate(-101.03 -81.06)"/>
      </g>
      <g>
        <path class="cls-1" d="M294.06,129.33c-.82-2.15-2.79-1.92-2.82-1.17s.74.5,1.08.38c.49-.16,1.35.32,1.48,1.41a1.13,1.13,0,0,1-.76,1.37,1,1,0,0,0-.71-1c.28.55.14,1.44-.81,1.36a2.48,2.48,0,0,1-1.47-.59,1.15,1.15,0,0,0,.39-1.53c0,.36-.54.81-1.26.32s-.63-1.75-.63-1.75a.76.76,0,0,0,1-.29c-.35,0-.63-.39-.57-1s.51-.61.84-.87.32-.62.87-1a2.86,2.86,0,0,1,1.88-.3c1.86.33,2.23,1.47,2.3,1.76a1.24,1.24,0,0,1-.08.83.61.61,0,0,1-.27.28.77.77,0,0,1-.38.1.79.79,0,0,1-.65-.31.82.82,0,0,1-.15-.65.42.42,0,0,1,.06-.14s0,0,0,0l0,0,0,0a.49.49,0,0,1,.25-.1.56.56,0,0,1,.43.16.79.79,0,0,1,.16.27l0,.11a.56.56,0,0,0,0-.12.62.62,0,0,0-.13-.3.6.6,0,0,0-.47-.23.51.51,0,0,0-.33.1l-.08.07,0,0,0,0a.75.75,0,0,0-.08.18.92.92,0,0,0,.14.82,1,1,0,0,0,.83.43,1,1,0,0,0,.5-.12.85.85,0,0,0,.37-.38,1.4,1.4,0,0,0,.1-1c-.08-.34-.52-1.72-3.11-2a4.27,4.27,0,0,0-4.64,4.1c-.14,2.17,1.2,4.83,3.53,5A3.08,3.08,0,0,0,294.06,129.33Zm-5.28-1.57-.07,0-.07-.06-.09-.08a.41.41,0,0,1-.07-.11l-.07-.12a1.21,1.21,0,0,0-.05-.14.61.61,0,0,1,0-.13s0-.09,0-.14,0-.08,0-.12a.49.49,0,0,1,0-.12,1.74,1.74,0,0,1,0-.23s0,.1,0,.23,0,.07,0,.11a.7.7,0,0,0,0,.12s0,.08,0,.12a.42.42,0,0,0,0,.12s0,.09,0,.13,0,.07.05.11a.39.39,0,0,0,.06.11l.05.09.06.07,0,0,0,.05Zm.34,3.15a.93.93,0,0,1-.23,0l-.22-.07a1.24,1.24,0,0,1-.2-.1,1,1,0,0,1-.17-.12l-.15-.12a1.46,1.46,0,0,1-.18-.2l-.06-.08.08,0,.23.14.16.09.17.08a1.54,1.54,0,0,0,.19.08,1.17,1.17,0,0,0,.2.06,1.2,1.2,0,0,0,.2,0,.67.67,0,0,0,.2,0h.09l.09,0,.17,0a1.53,1.53,0,0,0,.33-.14l-.07.08-.08.08-.14.09-.17.08-.1,0-.1,0h-.24Zm1.87,1.93h-.26l.12,0,.13,0,.16,0,.19-.06.21-.07.21-.1a2.12,2.12,0,0,0,.2-.12l.19-.14a.81.81,0,0,0,.16-.16c.06,0,.1-.11.15-.16s.08-.11.11-.16a2.84,2.84,0,0,0,.18-.37.87.87,0,0,1,0,.11.78.78,0,0,1,0,.14,1.54,1.54,0,0,1,0,.17,1.07,1.07,0,0,1-.09.19l-.13.2a1.45,1.45,0,0,1-.17.18l-.21.17a2.53,2.53,0,0,1-.23.12l-.23.09-.23.06-.21,0H291Z" transform="translate(-101.03 -81.06)"/>
        <path class="cls-1" d="M296.66,125a2,2,0,0,0,2.37-.54h0a2,2,0,0,0-2.37-.53c1.15-1.62-.39-2.29-.39-2.29.67,1.8-1.71,2.77-1.83,2.82h0c.12,0,2.5,1,1.83,2.83C296.27,127.24,297.81,126.57,296.66,125Z" transform="translate(-101.03 -81.06)"/>
        <path class="cls-1" d="M290.91,115.35c-2.33.18-3.67,2.84-3.53,5a4.25,4.25,0,0,0,4.64,4.09c2.59-.22,3-1.61,3.11-1.94a1.4,1.4,0,0,0-.1-1,.85.85,0,0,0-.37-.38.92.92,0,0,0-.5-.12,1,1,0,0,0-.83.42.94.94,0,0,0-.14.83,1.42,1.42,0,0,0,.08.18l0,0,0,0,.08.07a.58.58,0,0,0,.33.1.66.66,0,0,0,.47-.23.68.68,0,0,0,.13-.31.45.45,0,0,0,0-.11l0,.11a.89.89,0,0,1-.16.27.55.55,0,0,1-.43.15.49.49,0,0,1-.25-.1l0,0,0,0s0,0,0,0a.47.47,0,0,1-.06-.15.83.83,0,0,1,.15-.65.81.81,0,0,1,.65-.3.67.67,0,0,1,.38.09.66.66,0,0,1,.27.28,1.26,1.26,0,0,1,.08.84c-.07.29-.44,1.43-2.3,1.75a2.8,2.8,0,0,1-1.88-.3c-.55-.42-.53-.78-.87-1s-.77-.24-.84-.86.22-1,.57-1a.77.77,0,0,0-1-.29s-.1-1.26.63-1.75,1.24,0,1.26.32a1.15,1.15,0,0,0-.39-1.53,2.48,2.48,0,0,1,1.47-.59c1-.08,1.09.81.81,1.37a1,1,0,0,0,.71-1,1.15,1.15,0,0,1,.76,1.38c-.13,1.09-1,1.56-1.48,1.4-.34-.11-1.12-.33-1.08.39s2,1,2.82-1.17A3.08,3.08,0,0,0,290.91,115.35ZM288.84,121l0,0,0,0-.06.08a.56.56,0,0,0-.05.08.6.6,0,0,0-.06.11s0,.07-.05.11,0,.09,0,.13a.56.56,0,0,0,0,.12s0,.09,0,.13a.53.53,0,0,0,0,.12s0,.07,0,.1,0,.23,0,.23a1.74,1.74,0,0,1,0-.23.37.37,0,0,1,0-.11s0-.09,0-.13,0-.09,0-.14a.61.61,0,0,1,0-.13.78.78,0,0,0,.05-.14l.07-.11a.41.41,0,0,1,.07-.11l.09-.09.07-.05.07,0Zm.4-3.12h.12l.1,0,.1,0,.17.08.14.08.08.08a.39.39,0,0,1,.07.09,1.28,1.28,0,0,0-.33-.15l-.17,0h-.18a1.34,1.34,0,0,0-.2,0,.65.65,0,0,0-.2,0,1.17,1.17,0,0,0-.2.06l-.19.07a.91.91,0,0,0-.17.09l-.16.08-.23.14-.08,0,.06-.08a1.46,1.46,0,0,1,.18-.2l.15-.12.17-.11a1.24,1.24,0,0,1,.2-.1,1,1,0,0,1,.22-.08l.23,0Zm1.83-1.94h.09l.21,0,.23,0,.23.09.23.13.21.16a1.54,1.54,0,0,1,.17.19,1.37,1.37,0,0,1,.13.2.66.66,0,0,1,.09.19,1.09,1.09,0,0,1,0,.17.69.69,0,0,1,0,.13,1.09,1.09,0,0,1,0,.12,2.27,2.27,0,0,0-.18-.37l-.11-.16-.15-.17a1.17,1.17,0,0,0-.16-.15c-.06-.06-.13-.1-.19-.15l-.2-.11-.21-.1-.21-.08-.19-.06-.16,0-.13,0-.12,0h.34Z" transform="translate(-101.03 -81.06)"/>
      </g>
      <g>
        <path class="cls-1" d="M116.08,108.05a4.54,4.54,0,0,0-4.85,4.68,7.26,7.26,0,0,0,1.85,4.68s-1.81-2.75-1.28-5.06,1.91-3.06,2.89-3.17,2,.6,1,1.92a1.41,1.41,0,0,0,1.35-1.34,3.37,3.37,0,0,1,1.22,1.75,1.08,1.08,0,0,1-1.79,1.13s-.15,1.37,1.44,1.35a3.76,3.76,0,0,1-3.22.11,1.78,1.78,0,0,1-.56-2.42,2.52,2.52,0,0,0-.6,3.69.8.8,0,0,0-.28.83s.37-.35,1.34-.16a4.06,4.06,0,0,0,4.91-2.27,1.71,1.71,0,0,0,2.31-.2s-1.47-.37-1.58-1.51c-.08-.81-.64-3-2.31-3.42a1.09,1.09,0,0,0,.09-1.48A2.08,2.08,0,0,1,116.08,108.05Zm.22.6a4.12,4.12,0,0,1,1.22.42,4,4,0,0,1,1.13.9,4.07,4.07,0,0,1,.43.65,3.17,3.17,0,0,1,.26.75,3.56,3.56,0,0,1,.08.8,4.46,4.46,0,0,1-.09.81,3.42,3.42,0,0,1-.71,1.44,3,3,0,0,1-1.29.88,3.45,3.45,0,0,1-1.44.2,2.87,2.87,0,0,1-.66-.14,3,3,0,0,1-.57-.27,2.75,2.75,0,0,1-.82-.71,2,2,0,0,1-.36-.76,1.72,1.72,0,0,1,0-.53.88.88,0,0,1,0-.19.67.67,0,0,0,0,.19,2,2,0,0,0,.07.52,2.07,2.07,0,0,0,.39.7,2.74,2.74,0,0,0,.82.65,2.83,2.83,0,0,0,.54.23,3.19,3.19,0,0,0,.63.11,3.34,3.34,0,0,0,1.34-.22,2.89,2.89,0,0,0,1.17-.83,3,3,0,0,0,.64-1.33,4.79,4.79,0,0,0,.1-.76,1.09,1.09,0,0,0,0-.18,1.15,1.15,0,0,0,0-.19l0-.18,0-.19a2.82,2.82,0,0,0-.24-.69,2.65,2.65,0,0,0-.38-.6,3.66,3.66,0,0,0-1-.89,4.67,4.67,0,0,0-1.15-.44,4.52,4.52,0,0,0-1-.11,3.79,3.79,0,0,0-.82.08,3.33,3.33,0,0,0-.51.13l-.18.06.17-.08a4.58,4.58,0,0,1,.51-.16,4.14,4.14,0,0,1,.83-.13A4.09,4.09,0,0,1,116.3,108.65Z" transform="translate(-101.03 -81.06)"/>
        <path class="cls-1" d="M118,141.66a1.09,1.09,0,0,0-.09-1.48c1.67-.45,2.23-2.6,2.31-3.42.11-1.14,1.58-1.51,1.58-1.51a1.71,1.71,0,0,0-2.31-.2,4.07,4.07,0,0,0-4.91-2.27c-1,.19-1.34-.15-1.34-.15a.79.79,0,0,0,.28.82,2.52,2.52,0,0,0,.6,3.69,1.77,1.77,0,0,1,.56-2.41,3.72,3.72,0,0,1,3.22.11c-1.59,0-1.44,1.34-1.44,1.34a1.09,1.09,0,0,1,1.79,1.14,3.43,3.43,0,0,1-1.22,1.75,1.41,1.41,0,0,0-1.35-1.35c1,1.33-.15,2-1,1.93s-2.35-.87-2.89-3.18,1.28-5.05,1.28-5.05a7.22,7.22,0,0,0-1.85,4.67,4.54,4.54,0,0,0,4.85,4.68A2.08,2.08,0,0,1,118,141.66Zm-2.79-1.42a4.14,4.14,0,0,1-.83-.13,4.27,4.27,0,0,1-.51-.17l-.17-.07.18.06.51.13a4.46,4.46,0,0,0,1.87,0,4.31,4.31,0,0,0,1.15-.44,3.79,3.79,0,0,0,1-.88,2.65,2.65,0,0,0,.38-.6,2.9,2.9,0,0,0,.24-.7l0-.18,0-.19a1.09,1.09,0,0,0,0-.18,1.15,1.15,0,0,0,0-.19,4.79,4.79,0,0,0-.1-.76,3,3,0,0,0-.64-1.33,2.89,2.89,0,0,0-1.17-.83,3.33,3.33,0,0,0-1.34-.21,3.19,3.19,0,0,0-.63.1,3.7,3.7,0,0,0-.54.24,2.72,2.72,0,0,0-.82.64,2.11,2.11,0,0,0-.39.71,1.91,1.91,0,0,0-.07.52.63.63,0,0,0,0,.18.85.85,0,0,1,0-.18,1.77,1.77,0,0,1,0-.54,2,2,0,0,1,.36-.75,2.64,2.64,0,0,1,.82-.72,3,3,0,0,1,.57-.27,2.86,2.86,0,0,1,.66-.13,3.28,3.28,0,0,1,1.44.19,3,3,0,0,1,1.29.88,3.4,3.4,0,0,1,.71,1.45,4.26,4.26,0,0,1,.09.8,3.71,3.71,0,0,1-.08.81,3.33,3.33,0,0,1-.26.75,4,4,0,0,1-.43.64,3.8,3.8,0,0,1-1.13.9,4.46,4.46,0,0,1-2.3.49Z" transform="translate(-101.03 -81.06)"/>
      </g>
      <g>
        <path class="cls-1" d="M109.15,133.47c2.33-.18,3.66-2.84,3.53-5a4.27,4.27,0,0,0-4.64-4.1c-2.59.23-3,1.61-3.11,2a1.4,1.4,0,0,0,.1,1,.85.85,0,0,0,.37.38,1,1,0,0,0,.5.12,1,1,0,0,0,.83-.43.92.92,0,0,0,.14-.82.75.75,0,0,0-.08-.18l0,0,0,0-.08-.07a.51.51,0,0,0-.33-.1.6.6,0,0,0-.47.23.62.62,0,0,0-.13.3,1.09,1.09,0,0,0,0,.12.31.31,0,0,1,0-.11.56.56,0,0,1,.16-.27.52.52,0,0,1,.42-.16.4.4,0,0,1,.24.1l0,0,0,0s0,0,0,0a.84.84,0,0,1,.06.14.8.8,0,0,1-.8,1,.8.8,0,0,1-.38-.1.61.61,0,0,1-.27-.28,1.18,1.18,0,0,1-.07-.83c.06-.29.43-1.43,2.29-1.76a2.83,2.83,0,0,1,1.87.3c.55.42.54.78.88,1s.77.24.83.87-.21,1-.56,1a.76.76,0,0,0,1,.29s.1,1.26-.62,1.75-1.25,0-1.27-.32a1.15,1.15,0,0,0,.39,1.53,2.48,2.48,0,0,1-1.47.59c-1,.08-1.09-.81-.81-1.36a1,1,0,0,0-.71,1,1.13,1.13,0,0,1-.76-1.37c.13-1.09,1-1.57,1.48-1.41s1.11.33,1.08-.38-2-1-2.81,1.17A3.07,3.07,0,0,0,109.15,133.47Zm2.07-5.68,0-.05,0,0,.06-.07a.41.41,0,0,1,0-.09.39.39,0,0,0,.06-.11s0-.07,0-.11,0-.08,0-.13a.42.42,0,0,0,0-.12s0-.08,0-.12a.7.7,0,0,0,0-.12s0-.08,0-.11,0-.23,0-.23a1.74,1.74,0,0,1,0,.23.49.49,0,0,1,0,.12s0,.08,0,.12,0,.09,0,.14a.61.61,0,0,1,0,.13s0,.1,0,.14l-.07.12a.41.41,0,0,1-.07.11l-.09.08-.07.06-.07,0Zm-.4,3.12h-.11l-.11,0-.1,0-.17-.08-.14-.09-.09-.08-.06-.08a1.53,1.53,0,0,0,.33.14l.17,0,.09,0h.09a.67.67,0,0,0,.2,0,1.2,1.2,0,0,0,.2,0,1.17,1.17,0,0,0,.2-.06,1.54,1.54,0,0,0,.19-.08l.17-.08.16-.09.23-.14.09,0-.07.08a1.46,1.46,0,0,1-.18.2l-.15.12a1,1,0,0,1-.17.12,1.24,1.24,0,0,1-.2.1l-.22.07a1,1,0,0,1-.23,0ZM109,132.84h-.09l-.21,0-.22-.06-.24-.09a2.53,2.53,0,0,1-.23-.12l-.21-.17a1.45,1.45,0,0,1-.17-.18l-.13-.2a1.07,1.07,0,0,1-.09-.19,1.54,1.54,0,0,1-.05-.17.78.78,0,0,1,0-.14.87.87,0,0,1,0-.11,2.84,2.84,0,0,0,.18.37l.11.16.14.16a1.29,1.29,0,0,0,.17.16l.19.14a1.43,1.43,0,0,0,.21.12l.21.1.2.07.19.06.17,0,.12,0,.12,0H109Z" transform="translate(-101.03 -81.06)"/>
        <path class="cls-1" d="M103.4,125a2,2,0,0,1-2.37-.54h0a2,2,0,0,1,2.37-.53c-1.15-1.62.39-2.29.39-2.29-.67,1.8,1.71,2.77,1.83,2.82h0c-.12,0-2.5,1-1.83,2.83C103.79,127.24,102.25,126.57,103.4,125Z" transform="translate(-101.03 -81.06)"/>
        <path class="cls-1" d="M106,119.5c.81,2.14,2.79,1.92,2.81,1.17s-.74-.5-1.08-.39-1.35-.31-1.48-1.4a1.15,1.15,0,0,1,.76-1.38,1,1,0,0,0,.71,1c-.28-.56-.14-1.45.81-1.37a2.48,2.48,0,0,1,1.47.59,1.15,1.15,0,0,0-.39,1.53c0-.36.54-.81,1.27-.32s.62,1.75.62,1.75a.77.77,0,0,0-1,.29c.35,0,.63.4.56,1s-.49.61-.83.86-.33.62-.88,1a2.77,2.77,0,0,1-1.87.3c-1.86-.32-2.23-1.46-2.29-1.75a1.2,1.2,0,0,1,.07-.84.66.66,0,0,1,.27-.28.69.69,0,0,1,.38-.09.81.81,0,0,1,.65.3.79.79,0,0,1,.15.65.94.94,0,0,1-.06.15v0l0,0,0,0a.4.4,0,0,1-.24.1.52.52,0,0,1-.42-.15.61.61,0,0,1-.16-.27.31.31,0,0,1,0-.11.87.87,0,0,0,0,.11.68.68,0,0,0,.13.31.66.66,0,0,0,.47.23.58.58,0,0,0,.33-.1l.08-.07,0,0,0,0a1.42,1.42,0,0,0,.08-.18.94.94,0,0,0-.14-.83,1,1,0,0,0-.83-.42.92.92,0,0,0-.5.12.85.85,0,0,0-.37.38,1.4,1.4,0,0,0-.1,1c.08.33.52,1.72,3.11,1.94a4.25,4.25,0,0,0,4.64-4.09c.13-2.18-1.2-4.84-3.53-5A3.08,3.08,0,0,0,106,119.5Zm5.27,1.56.07,0,.07.05.09.09a.41.41,0,0,1,.07.11l.07.11,0,.14a.61.61,0,0,1,0,.13s0,.1,0,.14,0,.09,0,.13a.37.37,0,0,1,0,.11,1.74,1.74,0,0,1,0,.23s0-.09,0-.23,0-.06,0-.1a.53.53,0,0,0,0-.12s0-.08,0-.13a.56.56,0,0,0,0-.12s0-.08,0-.13,0-.07,0-.11a.6.6,0,0,0-.06-.11l0-.08-.06-.08,0,0,0,0Zm-.34-3.14.23,0a1,1,0,0,1,.22.08l.2.1.17.11.15.12a1.46,1.46,0,0,1,.18.2l.07.08-.09,0-.23-.14-.16-.08a.91.91,0,0,0-.17-.09l-.19-.07a1.17,1.17,0,0,0-.2-.06.65.65,0,0,0-.2,0,1.34,1.34,0,0,0-.2,0h-.18l-.17,0a1.28,1.28,0,0,0-.33.15.57.57,0,0,1,.06-.09l.09-.08.14-.08.17-.08.1,0,.11,0h.23ZM109.07,116h.26l-.12,0-.12,0-.17,0-.19.06-.2.08a1.36,1.36,0,0,0-.21.1c-.08,0-.14.08-.21.11a1.39,1.39,0,0,0-.19.15l-.17.15-.14.17-.11.16a2.27,2.27,0,0,0-.18.37,1.09,1.09,0,0,1,0-.12.69.69,0,0,1,0-.13,1.09,1.09,0,0,1,.05-.17.66.66,0,0,1,.09-.19,1.37,1.37,0,0,1,.13-.2,1.54,1.54,0,0,1,.17-.19l.21-.16.23-.13.24-.09.22,0,.21,0h.17Z" transform="translate(-101.03 -81.06)"/>
      </g>
    </g>
    <g>
      <g>
        <g>
          <g>
            <path class="cls-1" d="M226.5,95.25l.43.06a11.47,11.47,0,0,1,1.19.28,11.35,11.35,0,0,1,1.78.69A15.19,15.19,0,0,1,232,97.57c.74.54,1.5,1.15,2.31,1.74a11.55,11.55,0,0,0,2.72,1.5,9.29,9.29,0,0,0,1.57.41,4.77,4.77,0,0,0,1.6,0,3.89,3.89,0,0,0,1.48-.58,3.66,3.66,0,0,0,1.09-1.16,3.28,3.28,0,0,0,.46-1.5,4.58,4.58,0,0,0-.22-1.61,3.49,3.49,0,0,0-.83-1.32,3.37,3.37,0,0,0-1.31-.78,4,4,0,0,0-.76-.18,3,3,0,0,0-.73,0,2,2,0,0,0-1.23.57,1.92,1.92,0,0,0-.53,1.18,2,2,0,0,0,0,.64,1.82,1.82,0,0,0,.22.57,2.36,2.36,0,0,0,.83.83,1.67,1.67,0,0,0,.5.21,1.86,1.86,0,0,0,.52,0,1,1,0,0,0,.77-.41.82.82,0,0,0,.13-.73.81.81,0,0,0-.4-.48.62.62,0,0,0-.47-.06,1,1,0,0,0-.37.21,1,1,0,0,1,.35-.26.8.8,0,0,1,.53,0,1,1,0,0,1,.53.52,1,1,0,0,1,.06.45,1.07,1.07,0,0,1-.17.47,1.23,1.23,0,0,1-.93.56,2.49,2.49,0,0,1-.61,0,2.32,2.32,0,0,1-.61-.21,2.68,2.68,0,0,1-1-.92,2.3,2.3,0,0,1-.31-.69,2.76,2.76,0,0,1-.08-.77,2.44,2.44,0,0,1,.61-1.52,2.54,2.54,0,0,1,1.55-.8,3.38,3.38,0,0,1,.9,0,5.56,5.56,0,0,1,.87.17,4,4,0,0,1,1.61.9,4.06,4.06,0,0,1,1.05,1.59A5.27,5.27,0,0,1,244,98a4.11,4.11,0,0,1-.55,1.89,4.36,4.36,0,0,1-1.34,1.43,4.59,4.59,0,0,1-1.79.73,5.93,5.93,0,0,1-1.88,0,9.69,9.69,0,0,1-1.72-.47,11.47,11.47,0,0,1-2.87-1.68c-.83-.64-1.54-1.3-2.23-1.86a16.9,16.9,0,0,0-1.95-1.4,11.78,11.78,0,0,0-1.66-.84c-.48-.2-.87-.33-1.14-.42Z" transform="translate(-101.03 -81.06)"/>
            <path class="cls-1" d="M226.5,95.25l.43.06a11.47,11.47,0,0,1,1.19.28,11.35,11.35,0,0,1,1.78.69A15.19,15.19,0,0,1,232,97.57c.74.54,1.5,1.15,2.31,1.74a11.55,11.55,0,0,0,2.72,1.5,9.29,9.29,0,0,0,1.57.41,4.77,4.77,0,0,0,1.6,0,3.89,3.89,0,0,0,1.48-.58,3.66,3.66,0,0,0,1.09-1.16,3.28,3.28,0,0,0,.46-1.5,4.58,4.58,0,0,0-.22-1.61,3.49,3.49,0,0,0-.83-1.32,3.37,3.37,0,0,0-1.31-.78,4,4,0,0,0-.76-.18,3,3,0,0,0-.73,0,2,2,0,0,0-1.23.57,1.92,1.92,0,0,0-.53,1.18,2,2,0,0,0,0,.64,1.82,1.82,0,0,0,.22.57,2.36,2.36,0,0,0,.83.83,1.67,1.67,0,0,0,.5.21,1.86,1.86,0,0,0,.52,0,1,1,0,0,0,.77-.41.82.82,0,0,0,.13-.73.81.81,0,0,0-.4-.48.62.62,0,0,0-.47-.06,1,1,0,0,0-.37.21,1,1,0,0,1,.35-.26.8.8,0,0,1,.53,0,1,1,0,0,1,.53.52,1,1,0,0,1,.06.45,1.07,1.07,0,0,1-.17.47,1.23,1.23,0,0,1-.93.56,2.49,2.49,0,0,1-.61,0,2.32,2.32,0,0,1-.61-.21,2.68,2.68,0,0,1-1-.92,2.3,2.3,0,0,1-.31-.69,2.76,2.76,0,0,1-.08-.77,2.44,2.44,0,0,1,.61-1.52,2.54,2.54,0,0,1,1.55-.8,3.38,3.38,0,0,1,.9,0,5.56,5.56,0,0,1,.87.17,4,4,0,0,1,1.61.9,4.06,4.06,0,0,1,1.05,1.59A5.27,5.27,0,0,1,244,98a4.11,4.11,0,0,1-.55,1.89,4.36,4.36,0,0,1-1.34,1.43,4.59,4.59,0,0,1-1.79.73,5.93,5.93,0,0,1-1.88,0,9.69,9.69,0,0,1-1.72-.47,11.47,11.47,0,0,1-2.87-1.68c-.83-.64-1.54-1.3-2.23-1.86a16.9,16.9,0,0,0-1.95-1.4,11.78,11.78,0,0,0-1.66-.84c-.48-.2-.87-.33-1.14-.42Z" transform="translate(-101.03 -81.06)"/>
            <g>
              <path class="cls-1" d="M213.59,97.31a19.78,19.78,0,0,0-3.7,5.1A40.17,40.17,0,0,1,214,98.06.81.81,0,0,0,213.59,97.31Z" transform="translate(-101.03 -81.06)"/>
              <g>
                <path class="cls-1" d="M250.91,95.67a1.19,1.19,0,0,0-1.23-1.56c-2.33,0-2.37,2.56-4.54,3.5-.22.1-.49.22-.81.34v0a4.4,4.4,0,0,1-.28,1.37c3.94-1.06,5.3-3.75,8.47-2.54A2.33,2.33,0,0,0,250.91,95.67Z" transform="translate(-101.03 -81.06)"/>
                <path class="cls-1" d="M243.5,98.22a3.61,3.61,0,0,1-.46,1.35l.31-.06a3.77,3.77,0,0,0,.39-1.36Z" transform="translate(-101.03 -81.06)"/>
                <path class="cls-1" d="M226.61,93.83c5.4,1.88,8.81,6,14.53,5.92.4,0,.78,0,1.14-.07a3,3,0,0,0,.25-.37,3.08,3.08,0,0,0,.37-1,9,9,0,0,1-2.57.15,1.61,1.61,0,0,1-.54.16,2.58,2.58,0,0,1-.67,0,2.47,2.47,0,0,1-.69-.24,2.94,2.94,0,0,1-.55-.37,18.58,18.58,0,0,1-5.51-2.92,4.27,4.27,0,0,0,3.79-2.42,4.51,4.51,0,0,1-3,.5.76.76,0,0,1-.09.09,2.77,2.77,0,0,1-.77.55l-.24.1-.23.07-.22,0-.2,0a1.63,1.63,0,0,1-.3,0h0l.3-.06a1.89,1.89,0,0,0,.18-.06.9.9,0,0,0,.21-.08l.2-.1a1.37,1.37,0,0,0,.2-.13,2.23,2.23,0,0,0,.56-.54,6.08,6.08,0,0,1-1.14-.41l-.78-.4-.05,0-.37.18-.21.09-.22.08-.23.06-.22,0-.21,0a.65.65,0,0,1-.19,0h-.39l.38-.06.18,0,.19-.07.2-.08.2-.1.2-.11a1.13,1.13,0,0,0,.18-.12l.2-.13a14.22,14.22,0,0,0-1.83-.82h0s-.1.07-.15.11a.74.74,0,0,1-.17.12l-.19.11a1.33,1.33,0,0,1-.21.09l-.2.08-.21,0-.2.05a1.11,1.11,0,0,1-.17,0l-.37,0,.35-.09.17-.06.17-.07.19-.09.17-.11a.74.74,0,0,0,.17-.12l.16-.13.12-.12a6,6,0,0,0-4,.09l.23.07A3.34,3.34,0,0,1,226.43,93,2.38,2.38,0,0,1,226.61,93.83Z" transform="translate(-101.03 -81.06)"/>
              </g>
            </g>
            <path class="cls-1" d="M225.87,95.58a2.59,2.59,0,0,0-1.42-4c.57,2-2.13,3.74-4.3,4.07a9.2,9.2,0,0,0-4.05,2c.15-.85-.4-1.49-1.51-1.61A3.53,3.53,0,0,0,212,97.29c.76-.67,2.28-.48,2.28.8s-1.13,3.21-3.8,5.45a13.9,13.9,0,0,1-7.49,3.23c6.6,1.41,8.82-3.42,12-4.7s3.56,1.24,3.56,1.24c1.42-3.08-1.6-3.6-1.6-3.6a9.33,9.33,0,0,1,4.49-1.29c2.23.1,1.81,2.56,1.81,2.56a2.75,2.75,0,0,0,1.61-3.41,3,3,0,0,1,2.84,2.61,2.89,2.89,0,0,1-2,3.38,3.71,3.71,0,0,1-3.31-.35c1,1.52,6.93,2.14,7.64-2.27S225.87,95.58,225.87,95.58Zm-10.63,2.36a.5.5,0,0,1,0,.11l0-.1c0-.07-.05-.16-.1-.26a1.66,1.66,0,0,0-.06-.16l-.09-.17-.11-.16a.93.93,0,0,0-.13-.15,1.49,1.49,0,0,0-.32-.24l-.16-.09-.16-.07-.36-.11a.93.93,0,0,1,.39,0,1.23,1.23,0,0,1,.4.08,1.39,1.39,0,0,1,.21.11,1.56,1.56,0,0,1,.2.16,1.46,1.46,0,0,1,.16.19,2.12,2.12,0,0,1,.11.21c0,.08,0,.15.06.21a1.62,1.62,0,0,1,0,.2A1.14,1.14,0,0,1,215.24,97.94Zm1.91,2.72.24,0a2.5,2.5,0,0,1,.25.09,1.33,1.33,0,0,1,.41.29,1.15,1.15,0,0,1,.14.19.64.64,0,0,1,.1.18,1.66,1.66,0,0,1,.06.16l0,.13v.11l-.07-.09-.07-.1s-.07-.08-.1-.13l-.12-.13c-.05,0-.09-.09-.15-.13a1,1,0,0,0-.17-.12l-.19-.1a.76.76,0,0,0-.21-.08,1.17,1.17,0,0,0-.2-.06l-.38-.07-.4,0a1.21,1.21,0,0,1,.39-.13A1.94,1.94,0,0,1,217.15,100.66Zm7.07-1.29-.08.24-.11.19a1.25,1.25,0,0,1-.19.26l-.08.09,0-.12c0-.07.06-.17.08-.29l.06-.2,0-.21a2,2,0,0,0,0-.23,1.64,1.64,0,0,0,0-.23,1.55,1.55,0,0,0-.05-.23,1.8,1.8,0,0,0-.08-.21,2.33,2.33,0,0,0-.22-.35l-.2-.23-.08-.09a.93.93,0,0,1,.39.2,1.14,1.14,0,0,1,.17.15,1,1,0,0,1,.15.2.92.92,0,0,1,.13.24,1.28,1.28,0,0,1,.07.28,2.53,2.53,0,0,1,0,.28A2,2,0,0,1,224.22,99.37Zm1.2-5.48a.9.9,0,0,1,0,.16l0,.16c0,.11-.11.2-.15.3s-.14.17-.2.26l-.23.19c-.07.06-.15.1-.22.15a1.38,1.38,0,0,1-.36.15l-.13,0,.11-.09c.07-.07.18-.13.29-.25s.11-.1.17-.17l.18-.2.15-.23a1.51,1.51,0,0,0,.12-.26l.05-.14,0-.14a1.28,1.28,0,0,0,0-.27,2.44,2.44,0,0,0,0-.27c0-.09,0-.17,0-.24a3.21,3.21,0,0,0-.09-.52,1.45,1.45,0,0,1,.25.48,1.67,1.67,0,0,1,.06.26,1.39,1.39,0,0,1,0,.3A1.82,1.82,0,0,1,225.42,93.89Zm3.72,6.36v.33c0,.21-.08.42-.12.62s-.15.37-.22.55a4.68,4.68,0,0,1-.27.44l-.12.19-.14.16-.22.24a2.25,2.25,0,0,1-.2.21l.13-.26.16-.28.09-.18.09-.2c.05-.14.13-.29.18-.45s.09-.34.15-.51,0-.37.08-.56a2.71,2.71,0,0,1,0-.29v-.14l0-.14,0-.29a2.76,2.76,0,0,1-.08-.27l0-.14-.06-.13c0-.08-.07-.17-.11-.25s-.18-.32-.28-.46l-.3-.39a5.79,5.79,0,0,0-.5-.54l-.21-.2a2.45,2.45,0,0,1,.26.13,3.69,3.69,0,0,1,.63.44,4.13,4.13,0,0,1,.37.36,4.42,4.42,0,0,1,.35.47l.15.28.08.14.05.15.1.31.06.33,0,.16Z" transform="translate(-101.03 -81.06)"/>
            <path class="cls-1" d="M224.17,91.67l-.09-.33a9.28,9.28,0,0,0-1.48.78s1.28-3.37-1.7-4.8-6.08.86-6.12,2.57c0,0,1.61-2.23,3.7-1s.94,3.74-.72,4.88a27.5,27.5,0,0,0-2.7,2.17,1.91,1.91,0,0,1,.94.51c2.43-1.87,5.28-3.41,7.92-3.22A1.82,1.82,0,0,0,224.17,91.67Zm-2.75-1.06c0,.18,0,.36-.07.51a3,3,0,0,1-.11.41,1.37,1.37,0,0,1-.11.31,2.6,2.6,0,0,1-.11.27s0-.11,0-.28,0-.2,0-.32,0-.27,0-.42a3.84,3.84,0,0,0,0-.48,3.24,3.24,0,0,0-.07-.52,2.61,2.61,0,0,0-.06-.27l-.09-.26a2.3,2.3,0,0,0-.26-.49,2.63,2.63,0,0,0-.8-.76,4.93,4.93,0,0,0-.91-.43,6.34,6.34,0,0,0-1-.25l.28,0a3.09,3.09,0,0,1,.76.05,3,3,0,0,1,1,.34,2.37,2.37,0,0,1,.52.35,2.3,2.3,0,0,1,.44.49,2.52,2.52,0,0,1,.3.59,2.66,2.66,0,0,1,.13.61A2.89,2.89,0,0,1,221.42,90.61Z" transform="translate(-101.03 -81.06)"/>
          </g>
          <g>
            <path class="cls-1" d="M173.56,95.25l-.43.06a10.84,10.84,0,0,0-1.18.28,10.71,10.71,0,0,0-1.79.69,15.19,15.19,0,0,0-2.11,1.29c-.74.54-1.5,1.15-2.31,1.74a11.55,11.55,0,0,1-2.72,1.5,9.29,9.29,0,0,1-1.57.41,4.77,4.77,0,0,1-1.6,0,4,4,0,0,1-1.48-.58,3.66,3.66,0,0,1-1.09-1.16,3.28,3.28,0,0,1-.46-1.5,4.58,4.58,0,0,1,.22-1.61,3.29,3.29,0,0,1,2.14-2.1,4,4,0,0,1,.76-.18,3,3,0,0,1,.73,0,2,2,0,0,1,1.22.57,1.93,1.93,0,0,1,.54,1.18,2,2,0,0,1,0,.64,1.82,1.82,0,0,1-.22.57,2.36,2.36,0,0,1-.83.83,1.67,1.67,0,0,1-.5.21,1.86,1.86,0,0,1-.52,0,1,1,0,0,1-.77-.41.82.82,0,0,1-.13-.73.81.81,0,0,1,.4-.48.62.62,0,0,1,.47-.06,1,1,0,0,1,.37.21,1,1,0,0,0-.35-.26.83.83,0,0,0-.54,0,1,1,0,0,0-.52.52,1,1,0,0,0-.06.45,1.07,1.07,0,0,0,.17.47,1.23,1.23,0,0,0,.93.56,2.49,2.49,0,0,0,.61,0,2.45,2.45,0,0,0,.61-.21,2.75,2.75,0,0,0,1-.92,2.3,2.3,0,0,0,.31-.69,2.61,2.61,0,0,0-.53-2.29,2.51,2.51,0,0,0-1.55-.8,3.38,3.38,0,0,0-.9,0,5.56,5.56,0,0,0-.87.17,3.91,3.91,0,0,0-1.61.9,4.06,4.06,0,0,0-1.05,1.59A5.06,5.06,0,0,0,156,98a4.11,4.11,0,0,0,.55,1.89,4.44,4.44,0,0,0,1.33,1.43,4.69,4.69,0,0,0,1.8.73,5.93,5.93,0,0,0,1.88,0,9.69,9.69,0,0,0,1.72-.47,11.47,11.47,0,0,0,2.87-1.68c.83-.64,1.54-1.3,2.23-1.86a16.9,16.9,0,0,1,1.95-1.4,11.78,11.78,0,0,1,1.66-.84c.48-.2.87-.33,1.13-.42Z" transform="translate(-101.03 -81.06)"/>
            <path class="cls-1" d="M173.56,95.25l-.43.06a10.84,10.84,0,0,0-1.18.28,10.71,10.71,0,0,0-1.79.69,15.19,15.19,0,0,0-2.11,1.29c-.74.54-1.5,1.15-2.31,1.74a11.55,11.55,0,0,1-2.72,1.5,9.29,9.29,0,0,1-1.57.41,4.77,4.77,0,0,1-1.6,0,4,4,0,0,1-1.48-.58,3.66,3.66,0,0,1-1.09-1.16,3.28,3.28,0,0,1-.46-1.5,4.58,4.58,0,0,1,.22-1.61,3.29,3.29,0,0,1,2.14-2.1,4,4,0,0,1,.76-.18,3,3,0,0,1,.73,0,2,2,0,0,1,1.22.57,1.93,1.93,0,0,1,.54,1.18,2,2,0,0,1,0,.64,1.82,1.82,0,0,1-.22.57,2.36,2.36,0,0,1-.83.83,1.67,1.67,0,0,1-.5.21,1.86,1.86,0,0,1-.52,0,1,1,0,0,1-.77-.41.82.82,0,0,1-.13-.73.81.81,0,0,1,.4-.48.62.62,0,0,1,.47-.06,1,1,0,0,1,.37.21,1,1,0,0,0-.35-.26.83.83,0,0,0-.54,0,1,1,0,0,0-.52.52,1,1,0,0,0-.06.45,1.07,1.07,0,0,0,.17.47,1.23,1.23,0,0,0,.93.56,2.49,2.49,0,0,0,.61,0,2.45,2.45,0,0,0,.61-.21,2.75,2.75,0,0,0,1-.92,2.3,2.3,0,0,0,.31-.69,2.61,2.61,0,0,0-.53-2.29,2.51,2.51,0,0,0-1.55-.8,3.38,3.38,0,0,0-.9,0,5.56,5.56,0,0,0-.87.17,3.91,3.91,0,0,0-1.61.9,4.06,4.06,0,0,0-1.05,1.59A5.06,5.06,0,0,0,156,98a4.11,4.11,0,0,0,.55,1.89,4.44,4.44,0,0,0,1.33,1.43,4.69,4.69,0,0,0,1.8.73,5.93,5.93,0,0,0,1.88,0,9.69,9.69,0,0,0,1.72-.47,11.47,11.47,0,0,0,2.87-1.68c.83-.64,1.54-1.3,2.23-1.86a16.9,16.9,0,0,1,1.95-1.4,11.78,11.78,0,0,1,1.66-.84c.48-.2.87-.33,1.13-.42Z" transform="translate(-101.03 -81.06)"/>
            <g>
              <path class="cls-1" d="M186.47,97.31a19.51,19.51,0,0,1,3.69,5.1A39.43,39.43,0,0,0,186,98.06.81.81,0,0,1,186.47,97.31Z" transform="translate(-101.03 -81.06)"/>
              <g>
                <path class="cls-1" d="M149.15,95.67a1.19,1.19,0,0,1,1.23-1.56c2.33,0,2.37,2.56,4.53,3.5l.82.34v0a4.4,4.4,0,0,0,.28,1.37c-3.94-1.06-5.3-3.75-8.47-2.54A2.33,2.33,0,0,1,149.15,95.67Z" transform="translate(-101.03 -81.06)"/>
                <path class="cls-1" d="M156.56,98.22a3.61,3.61,0,0,0,.46,1.35l-.31-.06a3.77,3.77,0,0,1-.39-1.36Z" transform="translate(-101.03 -81.06)"/>
                <path class="cls-1" d="M173.45,93.83c-5.4,1.88-8.81,6-14.53,5.92-.4,0-.78,0-1.14-.07-.09-.12-.18-.24-.26-.37a3.32,3.32,0,0,1-.36-1,9,9,0,0,0,2.57.15,1.61,1.61,0,0,0,.54.16,2.58,2.58,0,0,0,.67,0,2.47,2.47,0,0,0,.69-.24,2.94,2.94,0,0,0,.55-.37,18.58,18.58,0,0,0,5.51-2.92,4.29,4.29,0,0,1-3.8-2.42,4.56,4.56,0,0,0,3,.5.76.76,0,0,0,.09.09,2.77,2.77,0,0,0,.77.55l.24.1.23.07.22,0,.2,0a1.63,1.63,0,0,0,.3,0h0l-.29-.06a1.89,1.89,0,0,1-.18-.06.9.9,0,0,1-.21-.08l-.2-.1a1.37,1.37,0,0,1-.2-.13,2.48,2.48,0,0,1-.57-.54,5.91,5.91,0,0,0,1.15-.41l.78-.4.05,0,.37.18.21.09.22.08.23.06.22,0,.21,0a.65.65,0,0,0,.19,0h.39l-.38-.06-.18,0-.19-.07-.2-.08-.21-.1-.19-.11a1.13,1.13,0,0,1-.18-.12l-.2-.13a14.22,14.22,0,0,1,1.83-.82h0s.1.07.15.11a.74.74,0,0,0,.17.12l.19.11a1.33,1.33,0,0,0,.21.09l.2.08.22,0,.18.05a1.41,1.41,0,0,0,.18,0l.37,0-.35-.09-.17-.06-.17-.07-.19-.09-.17-.11a1,1,0,0,1-.17-.12l-.16-.13-.12-.12a6,6,0,0,1,4,.09l-.23.07A3.34,3.34,0,0,0,173.63,93,2.38,2.38,0,0,0,173.45,93.83Z" transform="translate(-101.03 -81.06)"/>
              </g>
            </g>
            <path class="cls-1" d="M170,100.94c.71,4.41,6.59,3.79,7.64,2.27a3.71,3.71,0,0,1-3.31.35,2.89,2.89,0,0,1-2-3.38,3,3,0,0,1,2.84-2.61,2.74,2.74,0,0,0,1.61,3.41s-.42-2.46,1.81-2.56a9.37,9.37,0,0,1,4.49,1.29s-3,.52-1.6,3.6c0,0,.38-2.52,3.55-1.24s5.4,6.11,12,4.7a13.9,13.9,0,0,1-7.49-3.23c-2.67-2.24-3.79-4.17-3.79-5.45s1.51-1.47,2.27-.8a3.53,3.53,0,0,0-2.56-1.19c-1.11.12-1.66.76-1.52,1.61a9.14,9.14,0,0,0-4-2c-2.17-.33-4.87-2-4.3-4.07a2.59,2.59,0,0,0-1.42,4S169.3,96.53,170,100.94Zm14.79-3.28a1.62,1.62,0,0,1,0-.2,1.15,1.15,0,0,1,.06-.21L185,97a1.46,1.46,0,0,1,.16-.19,1.08,1.08,0,0,1,.2-.16,1.39,1.39,0,0,1,.21-.11,1.23,1.23,0,0,1,.4-.08.93.93,0,0,1,.39,0l-.36.11-.16.07-.16.09a1.49,1.49,0,0,0-.32.24.61.61,0,0,0-.13.15l-.11.16-.09.17c0,.06,0,.11-.07.16s-.06.19-.09.26l0,.1s0,0,0-.11A1.21,1.21,0,0,1,184.8,97.66Zm-1.46,3a1.21,1.21,0,0,1,.39.13l-.4,0-.38.07-.21.06a.84.84,0,0,0-.2.08l-.19.1a1,1,0,0,0-.17.12c-.06,0-.1.09-.15.13l-.12.13a.91.91,0,0,0-.1.13l-.07.1-.07.09a.87.87,0,0,1,0-.11l0-.13a1.66,1.66,0,0,1,.06-.16.46.46,0,0,1,.1-.18,1.15,1.15,0,0,1,.14-.19,1.33,1.33,0,0,1,.41-.29,2.5,2.5,0,0,1,.25-.09l.24,0A2,2,0,0,1,183.34,100.68Zm-7.54-1.57a1.29,1.29,0,0,1,0-.28,1.28,1.28,0,0,1,.07-.28.92.92,0,0,1,.13-.24,1,1,0,0,1,.15-.2,1.14,1.14,0,0,1,.17-.15.93.93,0,0,1,.39-.2l-.08.09-.2.23a2.33,2.33,0,0,0-.22.35,1.8,1.8,0,0,0-.08.21,1.55,1.55,0,0,0,0,.23c0,.07,0,.15,0,.23s0,.15,0,.23l0,.21a1.94,1.94,0,0,1,0,.2c0,.12.08.22.09.29l0,.12-.08-.09a1,1,0,0,1-.19-.26l-.11-.19c0-.07,0-.15-.08-.24A2,2,0,0,1,175.8,99.11Zm-1.19-5.54a1.39,1.39,0,0,1,0-.3,1.67,1.67,0,0,1,.06-.26,1.57,1.57,0,0,1,.24-.48,4.24,4.24,0,0,0-.08.52c0,.07,0,.15,0,.24a2.44,2.44,0,0,0,0,.27,2.51,2.51,0,0,0,0,.27l0,.14.05.14a1.51,1.51,0,0,0,.12.26l.15.23.18.2c.06.07.12.12.17.17s.22.18.29.25l.11.09-.14,0a1.34,1.34,0,0,1-.35-.15c-.07,0-.15-.09-.22-.15l-.23-.19a2.48,2.48,0,0,1-.19-.26,1.73,1.73,0,0,1-.16-.3l-.05-.16s0-.11,0-.16S174.62,93.67,174.61,93.57Zm-3.69,6.51,0-.16.06-.33.1-.31.06-.15.07-.14.15-.28a4.42,4.42,0,0,1,.35-.47,4.13,4.13,0,0,1,.37-.36,3.69,3.69,0,0,1,.63-.44,2.45,2.45,0,0,1,.26-.13l-.21.2a5.79,5.79,0,0,0-.5.54l-.3.39c-.1.14-.18.3-.28.46s-.07.17-.11.25l-.06.13,0,.14a2.76,2.76,0,0,0-.08.27l0,.29,0,.14v.14a2.71,2.71,0,0,1,0,.29c0,.19,0,.38.08.56l.15.51c.05.16.13.31.18.45l.09.2.09.18.16.28.13.26a2.25,2.25,0,0,1-.2-.21l-.22-.24a1.07,1.07,0,0,1-.14-.16l-.12-.19a4.68,4.68,0,0,1-.27-.44c-.07-.18-.15-.36-.22-.55s-.09-.41-.12-.62v-.5Z" transform="translate(-101.03 -81.06)"/>
            <path class="cls-1" d="M176.14,93.19c2.64-.19,5.49,1.35,7.92,3.22a1.87,1.87,0,0,1,.94-.51,27.5,27.5,0,0,0-2.7-2.17c-1.66-1.14-2.8-3.7-.72-4.88s3.7,1,3.7,1c0-1.71-3.15-4-6.11-2.57s-1.71,4.8-1.71,4.8a9.28,9.28,0,0,0-1.48-.78l-.1.33A1.86,1.86,0,0,0,176.14,93.19ZM178.66,90a2.66,2.66,0,0,1,.13-.61,2.52,2.52,0,0,1,.3-.59,2.06,2.06,0,0,1,.44-.49,2.37,2.37,0,0,1,.52-.35,3.49,3.49,0,0,1,.54-.23,3.22,3.22,0,0,1,.5-.11,3.09,3.09,0,0,1,.76-.05l.28,0a6.34,6.34,0,0,0-1,.25,4.93,4.93,0,0,0-.91.43,2.63,2.63,0,0,0-.8.76,2.3,2.3,0,0,0-.26.49l-.09.26a2.61,2.61,0,0,0-.06.27,5,5,0,0,0-.07.52c0,.17,0,.33,0,.48a2.82,2.82,0,0,0,0,.42,2.69,2.69,0,0,0,0,.32c0,.17,0,.28,0,.28a2.6,2.6,0,0,1-.11-.27,1.37,1.37,0,0,1-.11-.31,3,3,0,0,1-.11-.41c0-.15-.05-.33-.07-.51A2.89,2.89,0,0,1,178.66,90Z" transform="translate(-101.03 -81.06)"/>
          </g>
        </g>
        <g>
          <path class="cls-1" d="M199,100.18A8.82,8.82,0,0,1,196,92.91c.37-4.45-2-6.7-4.84-6.41s-2.81,2.59-2.81,2.59-.23,2.32,2.52,2.32a1.71,1.71,0,0,1-1.28-1.85c.19-1.47,2.35-1.8,3.37-.71C195.66,91.7,192.29,96.92,199,100.18Z" transform="translate(-101.03 -81.06)"/>
          <path class="cls-1" d="M200,98.81a8.19,8.19,0,0,0,0-10.54A8.2,8.2,0,0,0,200,98.81Z" transform="translate(-101.03 -81.06)"/>
          <path class="cls-1" d="M196.4,103.09a2.49,2.49,0,0,0,2.46-.69,4.6,4.6,0,0,0,1.17,4.76,4.61,4.61,0,0,0,1.18-4.76,2.47,2.47,0,0,0,2.45.69c2.5-.63,2-5.19,2-5.19-1.85,5.7-5.63,2.7-5.63,2.7s-3.77,3-5.63-2.7C194.4,97.9,193.9,102.46,196.4,103.09Z" transform="translate(-101.03 -81.06)"/>
          <path class="cls-1" d="M201.1,100.18A8.82,8.82,0,0,0,204,92.91c-.37-4.45,2-6.7,4.84-6.41s2.8,2.59,2.8,2.59.24,2.32-2.51,2.32a1.71,1.71,0,0,0,1.28-1.85c-.19-1.47-2.35-1.8-3.37-.71C204.4,91.7,207.77,96.92,201.1,100.18Z" transform="translate(-101.03 -81.06)"/>
          <path class="cls-1" d="M197.51,89.8c.29-1.57,2-2.57,2.52-3.8.57,1.23,2.23,2.23,2.52,3.8a4.87,4.87,0,0,0-.57-4.18A20.33,20.33,0,0,1,200,81.06a20.33,20.33,0,0,1-1.95,4.56A4.87,4.87,0,0,0,197.51,89.8Z" transform="translate(-101.03 -81.06)"/>
        </g>
      </g>
      <g>
        <g>
          <g>
            <path class="cls-1" d="M226.5,153.58l.43-.07a11.47,11.47,0,0,0,1.19-.28,11.35,11.35,0,0,0,1.78-.69,14.28,14.28,0,0,0,2.11-1.29c.74-.53,1.5-1.15,2.31-1.73A10.88,10.88,0,0,1,237,148a7.72,7.72,0,0,1,1.57-.41,4.77,4.77,0,0,1,1.6,0,3.75,3.75,0,0,1,1.48.59,3.66,3.66,0,0,1,1.09,1.16,3.21,3.21,0,0,1,.46,1.49,4.55,4.55,0,0,1-.22,1.61,3.34,3.34,0,0,1-.83,1.32,3.51,3.51,0,0,1-1.31.79,4.94,4.94,0,0,1-.76.18,3.56,3.56,0,0,1-.73,0,2.17,2.17,0,0,1-1.23-.57,2,2,0,0,1-.53-1.18,2,2,0,0,1,0-.65,1.68,1.68,0,0,1,.22-.56,2.31,2.31,0,0,1,.83-.84,1.67,1.67,0,0,1,.5-.21,1.86,1.86,0,0,1,.52,0,1,1,0,0,1,.77.41.83.83,0,0,1,.13.73.81.81,0,0,1-.4.48.62.62,0,0,1-.47.06.72.72,0,0,1-.37-.21.76.76,0,0,0,.35.26.75.75,0,0,0,.53,0,1,1,0,0,0,.53-.52,1,1,0,0,0,.06-.45,1.07,1.07,0,0,0-.17-.47,1.23,1.23,0,0,0-.93-.56,2.09,2.09,0,0,0-.61,0,2,2,0,0,0-.61.2,2.68,2.68,0,0,0-1,.92,2.3,2.3,0,0,0-.31.69,2.76,2.76,0,0,0-.08.77,2.42,2.42,0,0,0,.61,1.52,2.61,2.61,0,0,0,1.55.81,3.39,3.39,0,0,0,.9,0,4.61,4.61,0,0,0,.87-.17,4,4,0,0,0,1.61-.9,4.06,4.06,0,0,0,1.05-1.59,5.25,5.25,0,0,0,.3-1.88,4.15,4.15,0,0,0-.55-1.9,4.36,4.36,0,0,0-1.34-1.43,4.59,4.59,0,0,0-1.79-.73,5.93,5.93,0,0,0-1.88,0,8.92,8.92,0,0,0-1.72.48,10.9,10.9,0,0,0-2.87,1.68c-.83.64-1.54,1.3-2.23,1.85a14.78,14.78,0,0,1-1.95,1.4,13.18,13.18,0,0,1-1.66.85c-.48.19-.87.32-1.14.41Z" transform="translate(-101.03 -81.06)"/>
            <path class="cls-1" d="M226.5,153.58l.43-.07a11.47,11.47,0,0,0,1.19-.28,11.35,11.35,0,0,0,1.78-.69,14.28,14.28,0,0,0,2.11-1.29c.74-.53,1.5-1.15,2.31-1.73A10.88,10.88,0,0,1,237,148a7.72,7.72,0,0,1,1.57-.41,4.77,4.77,0,0,1,1.6,0,3.75,3.75,0,0,1,1.48.59,3.66,3.66,0,0,1,1.09,1.16,3.21,3.21,0,0,1,.46,1.49,4.55,4.55,0,0,1-.22,1.61,3.34,3.34,0,0,1-.83,1.32,3.51,3.51,0,0,1-1.31.79,4.94,4.94,0,0,1-.76.18,3.56,3.56,0,0,1-.73,0,2.17,2.17,0,0,1-1.23-.57,2,2,0,0,1-.53-1.18,2,2,0,0,1,0-.65,1.68,1.68,0,0,1,.22-.56,2.31,2.31,0,0,1,.83-.84,1.67,1.67,0,0,1,.5-.21,1.86,1.86,0,0,1,.52,0,1,1,0,0,1,.77.41.83.83,0,0,1,.13.73.81.81,0,0,1-.4.48.62.62,0,0,1-.47.06.72.72,0,0,1-.37-.21.76.76,0,0,0,.35.26.75.75,0,0,0,.53,0,1,1,0,0,0,.53-.52,1,1,0,0,0,.06-.45,1.07,1.07,0,0,0-.17-.47,1.23,1.23,0,0,0-.93-.56,2.09,2.09,0,0,0-.61,0,2,2,0,0,0-.61.2,2.68,2.68,0,0,0-1,.92,2.3,2.3,0,0,0-.31.69,2.76,2.76,0,0,0-.08.77,2.42,2.42,0,0,0,.61,1.52,2.61,2.61,0,0,0,1.55.81,3.39,3.39,0,0,0,.9,0,4.61,4.61,0,0,0,.87-.17,4,4,0,0,0,1.61-.9,4.06,4.06,0,0,0,1.05-1.59,5.25,5.25,0,0,0,.3-1.88,4.15,4.15,0,0,0-.55-1.9,4.36,4.36,0,0,0-1.34-1.43,4.59,4.59,0,0,0-1.79-.73,5.93,5.93,0,0,0-1.88,0,8.92,8.92,0,0,0-1.72.48,10.9,10.9,0,0,0-2.87,1.68c-.83.64-1.54,1.3-2.23,1.85a14.78,14.78,0,0,1-1.95,1.4,13.18,13.18,0,0,1-1.66.85c-.48.19-.87.32-1.14.41Z" transform="translate(-101.03 -81.06)"/>
            <g>
              <path class="cls-1" d="M213.59,151.51a19.73,19.73,0,0,1-3.7-5.09,39.6,39.6,0,0,0,4.13,4.34A.81.81,0,0,1,213.59,151.51Z" transform="translate(-101.03 -81.06)"/>
              <g>
                <path class="cls-1" d="M250.91,153.15a1.19,1.19,0,0,1-1.23,1.56c-2.33,0-2.37-2.56-4.54-3.5-.22-.1-.49-.22-.81-.34v0a4.29,4.29,0,0,0-.28-1.36c3.94,1.05,5.3,3.74,8.47,2.53A2.3,2.3,0,0,1,250.91,153.15Z" transform="translate(-101.03 -81.06)"/>
                <path class="cls-1" d="M243.5,150.6a3.57,3.57,0,0,0-.46-1.34l.31.05a3.83,3.83,0,0,1,.39,1.36Z" transform="translate(-101.03 -81.06)"/>
                <path class="cls-1" d="M226.61,155c5.4-1.87,8.81-6.05,14.53-5.92.4,0,.78,0,1.14.07a3,3,0,0,1,.25.37,3.18,3.18,0,0,1,.37,1,9,9,0,0,0-2.57-.15,1.6,1.6,0,0,0-.54-.15,2.58,2.58,0,0,0-.67,0,2.16,2.16,0,0,0-.69.23,2.94,2.94,0,0,0-.55.37,18.88,18.88,0,0,0-5.51,2.93,4.25,4.25,0,0,1,3.79,2.42,4.45,4.45,0,0,0-3-.5.76.76,0,0,0-.09-.09,2.79,2.79,0,0,0-.77-.56,2.34,2.34,0,0,0-.24-.09,1.55,1.55,0,0,0-.23-.08l-.22,0-.2,0a1.63,1.63,0,0,0-.3,0H231l.11,0a1.43,1.43,0,0,1,.3.06.7.7,0,0,1,.18.05l.21.08c.06,0,.13.06.2.11a1.32,1.32,0,0,1,.2.12,2.23,2.23,0,0,1,.56.54,5.51,5.51,0,0,0-1.14.42c-.26.12-.52.26-.78.39l-.05,0-.37-.18-.21-.08-.22-.08-.23-.07-.22-.05-.21,0a.65.65,0,0,0-.19,0h-.39l.38.06.18.06.19.06a1.76,1.76,0,0,1,.2.09l.2.09.2.12.18.11.2.14a17.62,17.62,0,0,1-1.83.82h0l-.15-.12-.17-.12-.19-.1a.78.78,0,0,0-.21-.09l-.2-.09-.21-.05-.2-.05-.17,0-.37,0,.35.09.17.06.17.08.19.08.17.11a.74.74,0,0,1,.17.12l.16.13.12.12a5.88,5.88,0,0,1-4-.09l.23-.07a3.3,3.3,0,0,0,1.89-1.66A2.49,2.49,0,0,0,226.61,155Z" transform="translate(-101.03 -81.06)"/>
              </g>
            </g>
            <path class="cls-1" d="M230.05,147.89c-.71-4.41-6.6-3.8-7.64-2.28a3.69,3.69,0,0,1,3.31-.34,2.88,2.88,0,0,1,2,3.37,3,3,0,0,1-2.84,2.61,2.75,2.75,0,0,0-1.61-3.41s.42,2.46-1.81,2.56a9.37,9.37,0,0,1-4.49-1.28s3-.52,1.6-3.61c0,0-.38,2.52-3.56,1.24s-5.39-6.11-12-4.7a14,14,0,0,1,7.49,3.23c2.67,2.24,3.8,4.17,3.8,5.45s-1.52,1.47-2.28.81a3.54,3.54,0,0,0,2.56,1.18c1.11-.11,1.66-.76,1.51-1.61a9.09,9.09,0,0,0,4.05,2c2.17.33,4.87,2,4.3,4.08a2.6,2.6,0,0,0,1.42-4S230.76,152.3,230.05,147.89Zm-14.79,3.28a1.48,1.48,0,0,1,0,.19,1.66,1.66,0,0,1-.06.21,2.12,2.12,0,0,1-.11.21c-.05.06-.1.14-.16.2a1.49,1.49,0,0,1-.2.15,1.39,1.39,0,0,1-.21.11,1.62,1.62,0,0,1-.4.09,1,1,0,0,1-.39-.05,2.5,2.5,0,0,0,.36-.11l.16-.07.16-.08a2,2,0,0,0,.32-.25.93.93,0,0,0,.13-.15l.11-.16.09-.17a1,1,0,0,0,.06-.16c0-.1.07-.19.1-.25a.39.39,0,0,1,0-.1.36.36,0,0,1,0,.1A1.19,1.19,0,0,1,215.26,151.17Zm1.46-3a1.39,1.39,0,0,1-.39-.12l.4,0a3.48,3.48,0,0,0,.38-.07l.2,0a1.33,1.33,0,0,0,.21-.09l.19-.09.17-.12a1,1,0,0,0,.15-.14l.12-.13s.08-.08.1-.12l.07-.11.07-.09a.75.75,0,0,1,0,.11s0,.08,0,.14a1.66,1.66,0,0,1-.06.16,1.12,1.12,0,0,1-.1.18,1.1,1.1,0,0,1-.14.18,1.33,1.33,0,0,1-.41.29,2.5,2.5,0,0,1-.25.09l-.24,0A1.48,1.48,0,0,1,216.72,148.14Zm7.54,1.57a2.81,2.81,0,0,1,0,.29,1.19,1.19,0,0,1-.07.27.92.92,0,0,1-.13.24,1,1,0,0,1-.15.2,1.14,1.14,0,0,1-.17.15.93.93,0,0,1-.39.2l.08-.08.2-.24a1.92,1.92,0,0,0,.22-.35,1.31,1.31,0,0,0,.08-.21A1.74,1.74,0,0,0,224,150a2,2,0,0,0,0-.23,1.64,1.64,0,0,0,0-.23l0-.22-.06-.2c0-.12-.07-.22-.08-.29a.67.67,0,0,1,0-.12l.08.09a1.25,1.25,0,0,1,.19.26,1.8,1.8,0,0,1,.11.2c0,.07.05.15.08.23A2.34,2.34,0,0,1,224.26,149.71Zm1.19,5.55a1.36,1.36,0,0,1,0,.29,1.67,1.67,0,0,1-.06.26,1.45,1.45,0,0,1-.25.48,3.21,3.21,0,0,0,.09-.51c0-.08,0-.16,0-.25a2.35,2.35,0,0,0,0-.26,1.37,1.37,0,0,0,0-.28l0-.14-.05-.14a1.15,1.15,0,0,0-.12-.25c0-.09-.1-.16-.15-.24l-.18-.2c-.06-.07-.12-.11-.17-.17a3.57,3.57,0,0,0-.29-.24l-.11-.1.13.05a1.48,1.48,0,0,1,.36.16,1.35,1.35,0,0,1,.22.14l.23.2c.06.08.14.16.2.25s.11.19.15.3l0,.16a1.1,1.1,0,0,1,0,.16A1.84,1.84,0,0,1,225.45,155.26Zm3.69-6.52,0,.17-.06.32c0,.11-.07.21-.1.31l-.05.16-.08.14-.15.27a3.59,3.59,0,0,1-.35.47,3.1,3.1,0,0,1-.37.36,3.69,3.69,0,0,1-.63.44l-.26.13.21-.2a5.79,5.79,0,0,0,.5-.54,4.41,4.41,0,0,0,.3-.39c.1-.13.18-.3.28-.45l.11-.26.06-.13,0-.13a2.29,2.29,0,0,1,.08-.28l0-.28,0-.15v-.14c0-.09,0-.19,0-.29s0-.37-.08-.55-.1-.35-.15-.52-.13-.3-.18-.45l-.09-.2-.09-.17-.16-.29-.13-.26.2.21.22.25.14.15.12.2a3,3,0,0,1,.27.44l.22.54c0,.2.09.41.12.62v.5Z" transform="translate(-101.03 -81.06)"/>
            <path class="cls-1" d="M223.92,155.63c-2.64.2-5.49-1.34-7.92-3.21a2,2,0,0,1-.94.51,27.09,27.09,0,0,0,2.7,2.16c1.66,1.14,2.8,3.7.72,4.89s-3.7-1-3.7-1c0,1.71,3.15,4,6.12,2.57s1.7-4.8,1.7-4.8a8.53,8.53,0,0,0,1.48.78l.09-.33A1.82,1.82,0,0,0,223.92,155.63Zm-2.52,3.16a2.86,2.86,0,0,1-.13.62,2.66,2.66,0,0,1-.3.58,2.3,2.3,0,0,1-.44.49,2.86,2.86,0,0,1-.52.36,4.72,4.72,0,0,1-.54.22l-.5.12a3.56,3.56,0,0,1-.76,0l-.28,0a7.35,7.35,0,0,0,1-.26,4.35,4.35,0,0,0,.91-.43,2.63,2.63,0,0,0,.8-.76,2.3,2.3,0,0,0,.26-.49L221,159a2.61,2.61,0,0,0,.06-.27,3.09,3.09,0,0,0,.07-.52,3.84,3.84,0,0,0,0-.48c0-.15,0-.29,0-.41s0-.23,0-.32l0-.28a1.87,1.87,0,0,1,.11.26,1.58,1.58,0,0,1,.11.31,3.44,3.44,0,0,1,.11.41c0,.16.05.33.07.51A2.86,2.86,0,0,1,221.4,158.79Z" transform="translate(-101.03 -81.06)"/>
          </g>
          <g>
            <path class="cls-1" d="M173.56,153.58l-.43-.07a10.84,10.84,0,0,1-1.18-.28,10.71,10.71,0,0,1-1.79-.69,14.28,14.28,0,0,1-2.11-1.29c-.74-.53-1.5-1.15-2.31-1.73A10.88,10.88,0,0,0,163,148a7.72,7.72,0,0,0-1.57-.41,4.77,4.77,0,0,0-1.6,0,3.81,3.81,0,0,0-1.48.59,3.66,3.66,0,0,0-1.09,1.16,3.21,3.21,0,0,0-.46,1.49,4.55,4.55,0,0,0,.22,1.61,3.23,3.23,0,0,0,.83,1.32,3.51,3.51,0,0,0,1.31.79,4.94,4.94,0,0,0,.76.18,3.55,3.55,0,0,0,.73,0,2.11,2.11,0,0,0,1.22-.57,2,2,0,0,0,.54-1.18,2,2,0,0,0,0-.65,1.68,1.68,0,0,0-.22-.56,2.31,2.31,0,0,0-.83-.84,1.67,1.67,0,0,0-.5-.21,1.86,1.86,0,0,0-.52,0,1,1,0,0,0-.77.41.83.83,0,0,0-.13.73.81.81,0,0,0,.4.48.62.62,0,0,0,.47.06.72.72,0,0,0,.37-.21.76.76,0,0,1-.35.26.77.77,0,0,1-.54,0,1,1,0,0,1-.52-.52,1,1,0,0,1-.06-.45,1.07,1.07,0,0,1,.17-.47,1.23,1.23,0,0,1,.93-.56,2.35,2.35,0,0,1,1.22.23,2.75,2.75,0,0,1,1,.92,2.3,2.3,0,0,1,.31.69,2.43,2.43,0,0,1,.07.77,2.41,2.41,0,0,1-.6,1.52,2.58,2.58,0,0,1-1.55.81,3.39,3.39,0,0,1-.9,0,4.61,4.61,0,0,1-.87-.17,3.91,3.91,0,0,1-1.61-.9,4.06,4.06,0,0,1-1.05-1.59,5,5,0,0,1-.3-1.88,4.15,4.15,0,0,1,.55-1.9,4.44,4.44,0,0,1,1.33-1.43,4.69,4.69,0,0,1,1.8-.73,5.93,5.93,0,0,1,1.88,0,8.92,8.92,0,0,1,1.72.48,10.9,10.9,0,0,1,2.87,1.68c.83.64,1.54,1.3,2.23,1.85a14.78,14.78,0,0,0,1.95,1.4A13.18,13.18,0,0,0,172,153c.48.19.87.32,1.13.41Z" transform="translate(-101.03 -81.06)"/>
            <path class="cls-1" d="M173.56,153.58l-.43-.07a10.84,10.84,0,0,1-1.18-.28,10.71,10.71,0,0,1-1.79-.69,14.28,14.28,0,0,1-2.11-1.29c-.74-.53-1.5-1.15-2.31-1.73A10.88,10.88,0,0,0,163,148a7.72,7.72,0,0,0-1.57-.41,4.77,4.77,0,0,0-1.6,0,3.81,3.81,0,0,0-1.48.59,3.66,3.66,0,0,0-1.09,1.16,3.21,3.21,0,0,0-.46,1.49,4.55,4.55,0,0,0,.22,1.61,3.23,3.23,0,0,0,.83,1.32,3.51,3.51,0,0,0,1.31.79,4.94,4.94,0,0,0,.76.18,3.55,3.55,0,0,0,.73,0,2.11,2.11,0,0,0,1.22-.57,2,2,0,0,0,.54-1.18,2,2,0,0,0,0-.65,1.68,1.68,0,0,0-.22-.56,2.31,2.31,0,0,0-.83-.84,1.67,1.67,0,0,0-.5-.21,1.86,1.86,0,0,0-.52,0,1,1,0,0,0-.77.41.83.83,0,0,0-.13.73.81.81,0,0,0,.4.48.62.62,0,0,0,.47.06.72.72,0,0,0,.37-.21.76.76,0,0,1-.35.26.77.77,0,0,1-.54,0,1,1,0,0,1-.52-.52,1,1,0,0,1-.06-.45,1.07,1.07,0,0,1,.17-.47,1.23,1.23,0,0,1,.93-.56,2.35,2.35,0,0,1,1.22.23,2.75,2.75,0,0,1,1,.92,2.3,2.3,0,0,1,.31.69,2.43,2.43,0,0,1,.07.77,2.41,2.41,0,0,1-.6,1.52,2.58,2.58,0,0,1-1.55.81,3.39,3.39,0,0,1-.9,0,4.61,4.61,0,0,1-.87-.17,3.91,3.91,0,0,1-1.61-.9,4.06,4.06,0,0,1-1.05-1.59,5,5,0,0,1-.3-1.88,4.15,4.15,0,0,1,.55-1.9,4.44,4.44,0,0,1,1.33-1.43,4.69,4.69,0,0,1,1.8-.73,5.93,5.93,0,0,1,1.88,0,8.92,8.92,0,0,1,1.72.48,10.9,10.9,0,0,1,2.87,1.68c.83.64,1.54,1.3,2.23,1.85a14.78,14.78,0,0,0,1.95,1.4A13.18,13.18,0,0,0,172,153c.48.19.87.32,1.13.41Z" transform="translate(-101.03 -81.06)"/>
            <g>
              <path class="cls-1" d="M186.47,151.51a19.46,19.46,0,0,0,3.69-5.09,38.87,38.87,0,0,1-4.12,4.34A.81.81,0,0,0,186.47,151.51Z" transform="translate(-101.03 -81.06)"/>
              <g>
                <path class="cls-1" d="M149.15,153.15a1.19,1.19,0,0,0,1.23,1.56c2.33,0,2.37-2.56,4.53-3.5l.82-.34v0a4.29,4.29,0,0,1,.28-1.36c-3.94,1.05-5.3,3.74-8.47,2.53A2.3,2.3,0,0,0,149.15,153.15Z" transform="translate(-101.03 -81.06)"/>
                <path class="cls-1" d="M156.56,150.6a3.57,3.57,0,0,1,.46-1.34l-.31.05a3.83,3.83,0,0,0-.39,1.36Z" transform="translate(-101.03 -81.06)"/>
                <path class="cls-1" d="M173.45,155c-5.4-1.87-8.81-6.05-14.53-5.92-.4,0-.78,0-1.14.07-.09.12-.18.24-.26.37a3.44,3.44,0,0,0-.36,1,9,9,0,0,1,2.57-.15,1.6,1.6,0,0,1,.54-.15,2.58,2.58,0,0,1,.67,0,2.16,2.16,0,0,1,.69.23,2.94,2.94,0,0,1,.55.37,18.88,18.88,0,0,1,5.51,2.93,4.27,4.27,0,0,0-3.8,2.42,4.49,4.49,0,0,1,3-.5.76.76,0,0,1,.09-.09,2.79,2.79,0,0,1,.77-.56,2.34,2.34,0,0,1,.24-.09,1.55,1.55,0,0,1,.23-.08l.22,0,.2,0a1.63,1.63,0,0,1,.3,0h.12l-.12,0a1.49,1.49,0,0,0-.29.06.7.7,0,0,0-.18.05l-.21.08c-.06,0-.13.06-.2.11a1.32,1.32,0,0,0-.2.12,2.48,2.48,0,0,0-.57.54,5.38,5.38,0,0,1,1.15.42c.26.12.52.26.78.39l.05,0,.37-.18.21-.08.22-.08.23-.07.22-.05.21,0a.65.65,0,0,1,.19,0h.39l-.38.06a1.27,1.27,0,0,0-.18.06l-.19.06a1.76,1.76,0,0,0-.2.09l-.21.09-.19.12-.18.11-.2.14a17.62,17.62,0,0,0,1.83.82h0l.15-.12.17-.12.19-.1a.78.78,0,0,1,.21-.09l.2-.09.22-.05.18-.05.18,0,.37,0-.35.09-.17.06-.17.08-.19.08-.17.11a1,1,0,0,0-.17.12l-.16.13-.12.12a5.88,5.88,0,0,0,4-.09l-.23-.07a3.3,3.3,0,0,1-1.89-1.66A2.49,2.49,0,0,1,173.45,155Z" transform="translate(-101.03 -81.06)"/>
              </g>
            </g>
            <path class="cls-1" d="M174.19,153.24a2.6,2.6,0,0,0,1.42,4c-.57-2,2.13-3.75,4.3-4.08a9,9,0,0,0,4-2c-.14.85.41,1.5,1.52,1.61a3.54,3.54,0,0,0,2.56-1.18c-.76.66-2.27.47-2.27-.81s1.12-3.21,3.79-5.45a14,14,0,0,1,7.49-3.23c-6.6-1.41-8.82,3.42-12,4.7s-3.55-1.24-3.55-1.24c-1.42,3.09,1.6,3.61,1.6,3.61a9.41,9.41,0,0,1-4.49,1.28c-2.23-.1-1.81-2.56-1.81-2.56a2.74,2.74,0,0,0-1.61,3.41,3,3,0,0,1-2.84-2.61,2.88,2.88,0,0,1,2-3.37,3.69,3.69,0,0,1,3.31.34c-1.05-1.52-6.93-2.13-7.64,2.28S174.19,153.24,174.19,153.24Zm10.62-2.36a.65.65,0,0,1,0-.1.39.39,0,0,1,0,.1c0,.06,0,.15.09.25s0,.11.07.16l.09.17.11.16a.61.61,0,0,0,.13.15,2,2,0,0,0,.32.25l.16.08.16.07a2.5,2.5,0,0,0,.36.11,1,1,0,0,1-.39.05,1.62,1.62,0,0,1-.4-.09,1.39,1.39,0,0,1-.21-.11,1,1,0,0,1-.2-.15c-.06-.06-.11-.14-.16-.2l-.11-.21a.83.83,0,0,1-.06-.21,1.48,1.48,0,0,1,0-.19A1.28,1.28,0,0,1,184.81,150.88Zm-1.9-2.72-.24,0a2.5,2.5,0,0,1-.25-.09,1.33,1.33,0,0,1-.41-.29,1.1,1.1,0,0,1-.14-.18.66.66,0,0,1-.1-.18,1.66,1.66,0,0,1-.06-.16c0-.06,0-.1,0-.14V147a.39.39,0,0,0,.07.09l.07.11a.9.9,0,0,0,.1.12l.12.13a1,1,0,0,0,.15.14l.17.12.19.09a1.76,1.76,0,0,0,.2.09l.21,0a3.48,3.48,0,0,0,.38.07l.4,0a1.39,1.39,0,0,1-.39.12A1.5,1.5,0,0,1,182.91,148.16Zm-7.07,1.29c0-.08.06-.16.08-.23a1.8,1.8,0,0,1,.11-.2,1,1,0,0,1,.19-.26l.08-.09a.67.67,0,0,1,0,.12c0,.07-.06.17-.09.29a1.46,1.46,0,0,1,0,.2l0,.22c0,.07,0,.15,0,.23s0,.15,0,.23a1.74,1.74,0,0,0,0,.22,1.31,1.31,0,0,0,.08.21,1.92,1.92,0,0,0,.22.35l.2.24.08.08a.93.93,0,0,1-.39-.2,1.14,1.14,0,0,1-.17-.15,1,1,0,0,1-.15-.2.92.92,0,0,1-.13-.24,1.19,1.19,0,0,1-.07-.27,1.41,1.41,0,0,1,0-.29A2.34,2.34,0,0,1,175.84,149.45Zm-1.21,5.48c0-.05,0-.1,0-.16l.05-.16a1.73,1.73,0,0,1,.16-.3,2.35,2.35,0,0,1,.19-.25l.23-.2a1.35,1.35,0,0,1,.22-.14,1.44,1.44,0,0,1,.35-.16l.14-.05-.11.1a3.57,3.57,0,0,0-.29.24c-.05.06-.11.1-.17.17l-.18.2c0,.08-.1.15-.15.24a1.15,1.15,0,0,0-.12.25l-.05.14,0,.14a2.7,2.7,0,0,0,0,.28,2.35,2.35,0,0,0,0,.26c0,.09,0,.17,0,.25a4.27,4.27,0,0,0,.08.51,1.57,1.57,0,0,1-.24-.48,1.67,1.67,0,0,1-.06-.26,1.36,1.36,0,0,1,0-.29C174.62,155.15,174.61,155,174.63,154.93Zm-3.71-6.36v-.33c0-.21.08-.42.12-.62s.15-.37.22-.54a3,3,0,0,1,.27-.44l.12-.2.14-.15L172,146l.2-.21-.13.26c-.05.08-.1.18-.16.29l-.09.17-.09.2c-.05.15-.13.29-.18.45l-.15.52c0,.18,0,.37-.08.55s0,.2,0,.29v.14l0,.15,0,.28c0,.09.05.18.08.28l0,.13.06.13.11.26c.1.15.18.32.28.45a4.41,4.41,0,0,0,.3.39,5.79,5.79,0,0,0,.5.54l.21.2a2.45,2.45,0,0,1-.26-.13,3.69,3.69,0,0,1-.63-.44,3.1,3.1,0,0,1-.37-.36,3.59,3.59,0,0,1-.35-.47l-.15-.27-.07-.14-.06-.16c0-.1-.07-.2-.1-.31l-.06-.32,0-.17Z" transform="translate(-101.03 -81.06)"/>
            <path class="cls-1" d="M175.88,157.15l.1.33a8.53,8.53,0,0,0,1.48-.78s-1.28,3.38,1.71,4.8,6.07-.86,6.11-2.57c0,0-1.61,2.23-3.7,1s-.94-3.75.72-4.89a27.09,27.09,0,0,0,2.7-2.16,1.94,1.94,0,0,1-.94-.51c-2.43,1.87-5.28,3.41-7.92,3.21A1.86,1.86,0,0,0,175.88,157.15Zm2.76,1.06c0-.18,0-.35.07-.51a3.44,3.44,0,0,1,.11-.41,1.58,1.58,0,0,1,.11-.31,1.87,1.87,0,0,1,.11-.26l0,.28a2.69,2.69,0,0,0,0,.32,2.62,2.62,0,0,0,0,.41c0,.15,0,.31,0,.48a4.63,4.63,0,0,0,.07.52,2.61,2.61,0,0,0,.06.27l.09.26a2.3,2.3,0,0,0,.26.49,2.63,2.63,0,0,0,.8.76,4.35,4.35,0,0,0,.91.43,7.35,7.35,0,0,0,1,.26l-.28,0a3.56,3.56,0,0,1-.76,0l-.5-.12a4.72,4.72,0,0,1-.54-.22,2.86,2.86,0,0,1-.52-.36,2.06,2.06,0,0,1-.44-.49,2.66,2.66,0,0,1-.3-.58,3.53,3.53,0,0,1-.15-1.2Z" transform="translate(-101.03 -81.06)"/>
          </g>
        </g>
        <g>
          <path class="cls-1" d="M199,148.65a8.82,8.82,0,0,0-2.92,7.27c.37,4.44-2,6.69-4.84,6.4s-2.81-2.58-2.81-2.58-.23-2.33,2.52-2.33a1.71,1.71,0,0,0-1.28,1.85c.19,1.47,2.35,1.81,3.37.71C195.66,157.12,192.29,151.9,199,148.65Z" transform="translate(-101.03 -81.06)"/>
          <path class="cls-1" d="M200,150a8.19,8.19,0,0,1,0,10.54A8.2,8.2,0,0,1,200,150Z" transform="translate(-101.03 -81.06)"/>
          <path class="cls-1" d="M196.4,145.73a2.49,2.49,0,0,1,2.46.69,4.58,4.58,0,0,1,1.17-4.75,4.59,4.59,0,0,1,1.18,4.75,2.47,2.47,0,0,1,2.45-.69c2.5.64,2,5.2,2,5.2-1.85-5.7-5.63-2.71-5.63-2.71s-3.77-3-5.63,2.71C194.4,150.93,193.9,146.37,196.4,145.73Z" transform="translate(-101.03 -81.06)"/>
          <path class="cls-1" d="M201.1,148.65a8.82,8.82,0,0,1,2.92,7.27c-.37,4.44,2,6.69,4.84,6.4s2.8-2.58,2.8-2.58.24-2.33-2.51-2.33a1.71,1.71,0,0,1,1.28,1.85c-.19,1.47-2.35,1.81-3.37.71C204.4,157.12,207.77,151.9,201.1,148.65Z" transform="translate(-101.03 -81.06)"/>
          <path class="cls-1" d="M197.51,159c.29,1.57,2,2.57,2.52,3.8.57-1.23,2.23-2.23,2.52-3.8a4.89,4.89,0,0,1-.57,4.19,20.36,20.36,0,0,0-1.95,4.55,20.36,20.36,0,0,0-1.95-4.55A4.89,4.89,0,0,1,197.51,159Z" transform="translate(-101.03 -81.06)"/>
        </g>
      </g>
    </g>
  </g>
</svg>
